<svg xmlns="http://www.w3.org/2000/svg" width="40" height="40" viewBox="0 0 40 40">
  <g id="Group_1823" data-name="Group 1823" transform="translate(-253.394 -244.918)">
    <circle id="Ellipse_124" data-name="Ellipse 124" cx="20" cy="20" r="20" transform="translate(253.394 244.918)"/>
    <g id="Group_1822" data-name="Group 1822" transform="translate(265.04 252.664)">
      <path id="Path_106466" data-name="Path 106466" d="M277.315,252.644h.144a4.39,4.39,0,0,1-1.107,3.309,3.425,3.425,0,0,1-3.015,1.415,4.281,4.281,0,0,1,1.125-3.208,4.866,4.866,0,0,1,2.853-1.516Zm0,0" transform="translate(-265.014 -252.644)" fill="#fff" fill-rule="evenodd"/>
      <path id="Path_106467" data-name="Path 106467" d="M281.723,267.688v.044a11.912,11.912,0,0,1-1.7,3.287c-.651.9-1.451,2.1-2.875,2.1-1.226,0-2.043-.79-3.3-.813-1.337-.021-2.07.664-3.288.835h-.417a3.728,3.728,0,0,1-2.145-1.476,12.973,12.973,0,0,1-2.975-7.449v-.92a6.005,6.005,0,0,1,2.623-4.93,4.449,4.449,0,0,1,2.972-.69,7.956,7.956,0,0,1,1.459.417,3.959,3.959,0,0,0,1.453.44,3.518,3.518,0,0,0,1.025-.312,6.278,6.278,0,0,1,3.288-.585,4.547,4.547,0,0,1,3.348,2A4.3,4.3,0,0,0,279,263.9a4.406,4.406,0,0,0,2.725,3.788Zm0,0" transform="translate(-265.014 -252.644)" fill="#fff" fill-rule="evenodd"/>
    </g>
  </g>
</svg>
