<svg xmlns="http://www.w3.org/2000/svg" width="40" height="40" viewBox="0 0 40 40">
  <g id="Group_1824" data-name="Group 1824" transform="translate(-309.652 -244.918)">
    <ellipse id="Ellipse_125" data-name="Ellipse 125" cx="20" cy="20" rx="20" ry="20" transform="translate(309.652 244.918)" fill="#39996d"/>
    <path id="Path_106468" data-name="Path 106468" d="M340.76,258.4a1.953,1.953,0,0,0-1.953-1.948H320.5a1.953,1.953,0,0,0-1.952,1.948v12.987a1.953,1.953,0,0,0,1.952,1.948h18.31a1.953,1.953,0,0,0,1.953-1.948Zm-20.914.263,6.269,6.2-6.269,6.254Zm9.848,7.912-8.92-8.824h17.765Zm-2.654-.8,2.2,2.174a.651.651,0,0,0,.918,0l2.144-2.138,6.238,6.225H320.767Zm6.18-.884,6.239-6.225v12.449Z" transform="translate(0 0.026)" fill="#fff"/>
  </g>
</svg>
