<svg xmlns="http://www.w3.org/2000/svg" width="40" height="40" viewBox="0 0 40 40">
  <g id="Group_1819" data-name="Group 1819" transform="translate(-50.845 38.25)">
    <circle id="Ellipse_122" data-name="Ellipse 122" cx="20" cy="20" r="20" transform="translate(50.846 -38.25)" fill="#1e4fad"/>
    <path id="Path_106459" data-name="Path 106459" d="M68.6-28.985c.733-.024,1.465,0,2.2-.006h.3v-3.766c-.391-.039-.8-.095-1.211-.114-.751-.032-1.5-.069-2.255-.052a5.554,5.554,0,0,0-3.184.972,4.7,4.7,0,0,0-1.914,3.143,10.71,10.71,0,0,0-.132,1.617c-.021.844,0,1.689,0,2.534v.317H58.754v4.206h3.625V-9.562h4.43V-20.117h3.612c.186-1.4.367-2.784.556-4.226h-.811c-1.028,0-3.386,0-3.386,0s.01-2.085.034-2.988C66.85-28.571,67.595-28.95,68.6-28.985Z" transform="translate(4.848 3.349)" fill="#fff" fill-rule="evenodd"/>
  </g>
</svg>
