<svg xmlns="http://www.w3.org/2000/svg" width="40" height="40" viewBox="0 0 40 40">
  <g id="Group_1821" data-name="Group 1821" transform="translate(-114.383 -244.918)">
    <ellipse id="Ellipse_123" data-name="Ellipse 123" cx="20" cy="20" rx="20" ry="20" transform="translate(114.382 244.918)" fill="#efefef"/>
    <g id="Group_1820" data-name="Group 1820" transform="translate(121.042 251.577)">
      <path id="Path_106460" data-name="Path 106460" d="M146.691,262.573H135.807a.871.871,0,0,0-.87.871v3.476a.871.871,0,0,0,.87.871h6.129a8.186,8.186,0,0,1-3.522,4.127l2.614,4.523A13.08,13.08,0,0,0,147.7,265a8.822,8.822,0,0,0-.15-1.709.874.874,0,0,0-.857-.718Zm0,0" transform="translate(-121.016 -251.551)" fill="#167ee6"/>
      <path id="Path_106461" data-name="Path 106461" d="M134.357,273.013a8.118,8.118,0,0,1-7.024-4.063l-4.524,2.607a13.331,13.331,0,0,0,18.219,4.89v-.007l-2.614-4.523a8.062,8.062,0,0,1-4.057,1.1Zm0,0" transform="translate(-121.016 -251.551)" fill="#12b347"/>
      <path id="Path_106462" data-name="Path 106462" d="M141.028,276.447v-.007l-2.614-4.523a8.059,8.059,0,0,1-4.057,1.1v5.221a13.325,13.325,0,0,0,6.671-1.787Zm0,0" transform="translate(-121.016 -251.551)" fill="#0f993e"/>
      <path id="Path_106463" data-name="Path 106463" d="M126.236,264.893a8.06,8.06,0,0,1,1.1-4.057l-4.524-2.608a13.282,13.282,0,0,0,0,13.329l4.524-2.607a8.066,8.066,0,0,1-1.1-4.057Zm0,0" transform="translate(-121.016 -251.551)" fill="#ffd500"/>
      <path id="Path_106464" data-name="Path 106464" d="M134.357,256.772a8.086,8.086,0,0,1,5.156,1.851.866.866,0,0,0,1.166-.052l2.464-2.464a.877.877,0,0,0-.051-1.282,13.311,13.311,0,0,0-20.283,3.4l4.524,2.608a8.119,8.119,0,0,1,7.024-4.064Zm0,0" transform="translate(-121.016 -251.551)" fill="#ff4b26"/>
      <path id="Path_106465" data-name="Path 106465" d="M139.513,258.623a.866.866,0,0,0,1.166-.052l2.464-2.464a.877.877,0,0,0-.051-1.282,13.3,13.3,0,0,0-8.735-3.274v5.221a8.086,8.086,0,0,1,5.156,1.851Zm0,0" transform="translate(-121.016 -251.551)" fill="#d93f21"/>
    </g>
  </g>
</svg>
