<svg xmlns="http://www.w3.org/2000/svg" width="150.23" height="150.23" viewBox="0 0 150.23 150.23">
  <g id="Group_3715" data-name="Group 3715" transform="translate(-229.403 -92.748)">
    <g id="Group_3716" data-name="Group 3716">
      <g id="Group_3715-2" data-name="Group 3715">
        <path id="Path_106818" data-name="Path 106818" d="M352.665,219.056a36.966,36.966,0,0,0-22.5-17.344c-3.483-.97-6.606-1.072-9.851,1.308-4.335,3.18-9.517,4.486-14.9,4.722a30.45,30.45,0,0,1-19.388-5.62,5.794,5.794,0,0,0-4.754-1.145c-.9.192-1.808.317-2.7.54a36.1,36.1,0,0,0-24.567,19.84,4.52,4.52,0,0,0-.4,1.174,74.945,74.945,0,0,0,100.582,1.123C354.642,222.351,354.111,221.475,352.665,219.056Z" fill="#b8b8b8"/>
        <path id="Path_106819" data-name="Path 106819" d="M303.988,140.154a29.284,29.284,0,1,0,29.209,29.27A29.44,29.44,0,0,0,303.988,140.154Z" fill="#b8b8b8"/>
      </g>
    </g>
    <circle id="Ellipse_172" data-name="Ellipse 172" cx="74.615" cy="74.615" r="74.615" transform="translate(229.903 93.248)" fill="none" stroke="#b8b8b8" stroke-miterlimit="10" stroke-width="1"/>
  </g>
</svg>
