<svg xmlns="http://www.w3.org/2000/svg" width="11.125" height="21.306" viewBox="0 0 11.125 21.306">
  <path id="Path_106417" data-name="Path 106417" d="M37.256-105.783c.659-.022,1.318,0,1.98-.006h.273v-3.432c-.354-.035-.722-.087-1.091-.1-.677-.031-1.355-.065-2.033-.048a4.988,4.988,0,0,0-2.869.887,4.29,4.29,0,0,0-1.723,2.867,10.06,10.06,0,0,0-.12,1.472c-.019.771,0,1.541,0,2.312v.288H28.385v3.836h3.266v9.639h3.992V-97.7H38.9c.167-1.274.33-2.537.5-3.852-.263,0-.5,0-.733,0-.925,0-3.051,0-3.051,0s.009-1.9.032-2.726C35.681-105.4,36.351-105.749,37.256-105.783Z" transform="translate(-28.385 109.378)" fill="#fff" fill-rule="evenodd"/>
</svg>
