<svg xmlns="http://www.w3.org/2000/svg" width="20.135" height="20.127" viewBox="0 0 20.135 20.127">
  <path id="Path_106420" data-name="Path 106420" d="M101.973-103.809a5.338,5.338,0,0,0-1.628-3.437,5.577,5.577,0,0,0-3.691-1.5,72.466,72.466,0,0,0-9.96.112,5.078,5.078,0,0,0-4.355,3.91c-.48,1.713-.384,9.608-.1,11.3a5.1,5.1,0,0,0,4.044,4.392c1.588.409,9.394.357,11.145.072a5.1,5.1,0,0,0,4.41-4.026C102.3-94.741,102.134-102.222,101.973-103.809ZM100.12-93.748a3.408,3.408,0,0,1-3.2,3.042c-1.624.177-8.877.275-10.384-.146a3.3,3.3,0,0,1-2.5-2.845,67.19,67.19,0,0,1,0-10.16,3.4,3.4,0,0,1,3.191-3.028,70.773,70.773,0,0,1,9.911.04,3.407,3.407,0,0,1,3.035,3.209A72.239,72.239,0,0,1,100.12-93.748Zm-8.048-10.209A5.164,5.164,0,0,0,86.9-98.8a5.163,5.163,0,0,0,5.161,5.165,5.163,5.163,0,0,0,5.165-5.161A5.162,5.162,0,0,0,92.071-103.957Zm-.035,8.5a3.34,3.34,0,0,1-3.309-3.369,3.341,3.341,0,0,1,3.369-3.309A3.339,3.339,0,0,1,95.4-98.767,3.34,3.34,0,0,1,92.036-95.458Zm6.608-8.694a1.209,1.209,0,0,1-1.212,1.206,1.208,1.208,0,0,1-1.206-1.212,1.209,1.209,0,0,1,1.212-1.206A1.209,1.209,0,0,1,98.643-104.152Z" transform="translate(-82.002 108.859)" fill="#fff"/>
</svg>
