<svg xmlns="http://www.w3.org/2000/svg" width="19.502" height="15.871" viewBox="0 0 19.502 15.871">
  <path id="Path_106418" data-name="Path 106418" d="M60-95.265a4.02,4.02,0,0,1-3.728-2.781,3.968,3.968,0,0,0,1.718-.052.294.294,0,0,0,.057-.026,4,4,0,0,1-2.6-1.838,3.9,3.9,0,0,1-.587-2.132,3.933,3.933,0,0,0,1.783.485,4.029,4.029,0,0,1-1.649-2.429,3.974,3.974,0,0,1,.43-2.9,11.461,11.461,0,0,0,8.265,4.188c-.023-.159-.048-.3-.065-.438a3.9,3.9,0,0,1,.586-2.62,3.853,3.853,0,0,1,2.718-1.812,3.907,3.907,0,0,1,3.508,1.117.2.2,0,0,0,.214.065,8.083,8.083,0,0,0,2.332-.9.273.273,0,0,1,.052-.028l.028,0a4.1,4.1,0,0,1-1.717,2.181,7.675,7.675,0,0,0,2.231-.6l.017.018c-.153.2-.3.407-.461.6a7.79,7.79,0,0,1-1.457,1.384.134.134,0,0,0-.065.125,10.964,10.964,0,0,1-.076,1.78A11.722,11.722,0,0,1,70.5-98.312a11.518,11.518,0,0,1-2.166,3.159,10.7,10.7,0,0,1-5.506,3.068,12.039,12.039,0,0,1-2.232.266,11.327,11.327,0,0,1-6.413-1.721c-.025-.015-.05-.033-.094-.062a8.089,8.089,0,0,0,4.008-.553A7.9,7.9,0,0,0,60-95.265Z" transform="translate(-54.085 107.685)" fill="#fff" fill-rule="evenodd"/>
</svg>
