<svg xmlns="http://www.w3.org/2000/svg" width="21.436" height="15.022" viewBox="0 0 21.436 15.022">
  <path id="Path_106421" data-name="Path 106421" d="M114.123-92.064a2.5,2.5,0,0,1-1.647-1.6c-.712-1.961-.923-10.155.449-11.77a2.662,2.662,0,0,1,1.792-.953c3.7-.4,15.12-.34,16.438.134a2.581,2.581,0,0,1,1.616,1.555c.778,2.025.806,9.394-.1,11.346a2.5,2.5,0,0,1-1.159,1.169C130.13-91.457,115.936-91.467,114.123-92.064Zm5.872-3.842,6.656-3.453c-2.234-1.164-4.437-2.315-6.656-3.473Z" transform="translate(-111.915 106.648)" fill="#fff" fill-rule="evenodd"/>
</svg>
